<svg width="34" height="37" viewBox="0 0 34 37" fill="none" xmlns="http://www.w3.org/2000/svg">
<path d="M16.5714 30.2857C24.6191 30.2857 31.1429 24.2351 31.1429 15.7142H2C2 24.2351 8.52371 30.2857 16.5714 30.2857Z" stroke="rgb(0,0,0)" stroke-width="4"/>
<path d="M21.7143 15.7143C21.7143 10.9803 18.0689 7.14282 13.5714 7.14282C9.074 7.14282 5.42857 10.9803 5.42857 15.7143" stroke="rgb(0,0,0)" stroke-width="4"/>
<path d="M29.4286 15.7143C29.4286 12.8737 27.0577 10.5714 24.1331 10.5714C22.8963 10.5714 21.7589 10.9828 20.8571 11.6737" stroke="rgb(0,0,0)" stroke-width="4"/>
<path d="M24.2857 10.5714L26.8571 2" stroke="rgb(0,0,0)" stroke-width="4" stroke-linecap="round"/>
<path d="M28.5714 13.1428L32 7.14282" stroke="rgb(0,0,0)" stroke-width="4" stroke-linecap="round"/>
<path d="M11.4286 29.4286L9.71429 34.5714H23.4286L21.7143 29.4286" stroke="rgb(0,0,0)" stroke-width="4" stroke-linecap="round" stroke-linejoin="round"/>
</svg>
