<svg xmlns="http://www.w3.org/2000/svg" viewBox="0 0 800.29 800.29"><defs><style>.cls-1{fill:#FA744A;}</style></defs><title>資產 2</title><g id="圖層_2" data-name="圖層 2"><g id="圖層_1-2" data-name="圖層 1"><path d="M400.15,0C179.15,0,0,179.15,0,400.15S179.15,800.29,400.15,800.29,800.29,621.14,800.29,400.15,621.14,0,400.15,0Zm.45,760.63c-199,0-360.31-161.31-360.31-360.3S201.61,40,400.6,40s360.3,161.31,360.3,360.3S599.58,760.63,400.6,760.63Z" fill="#FA744A"/><path d="M579.41,409.93A49.66,49.66,0,0,0,530,364.87H269.28a49.66,49.66,0,0,0-49.43,45.06Z" fill="#FA744A"/><path d="M218.65,432.08V577.17a49.86,49.86,0,0,0,50.06,49.65H531.58a49.86,49.86,0,0,0,50.06-49.65V432.08Z" fill="#FA744A"/><path d="M287.55,175.93l25.77,18s-2.83,11.3,0,19.42,30.47,48.94,0,73.41l-13.77,9.88-18-26.72s14.79-5.52,10.32-22.69c0,0-12-27.06-13.17-35.88C278.73,211.35,274.37,190.4,287.55,175.93Z" fill="#FA744A"/><path d="M379.43,176.29l25.77,18s-2.83,11.29,0,19.41,30.47,48.94,0,73.41L391.43,297l-18-26.72s14.8-5.51,10.33-22.69c0,0-12-27.06-13.18-35.88C370.61,211.7,366.26,190.76,379.43,176.29Z" fill="#FA744A"/><path d="M464.61,175.93l25.76,18s-2.82,11.3,0,19.42,30.48,48.94,0,73.41l-13.76,9.88-18-26.72s14.8-5.52,10.33-22.69c0,0-12-27.06-13.17-35.88C455.79,211.35,451.43,190.4,464.61,175.93Z" fill="#FA744A"/><path d="M380.64,362.05h34.23l7-24.73s3.08-14.3-8.74-17.65-31.68-.27-31.24.44c0,0-12.7,4-7.67,17.56Z" fill="#FA744A"/><path class="cls-1" d="M579.79,432.26H633s15.06-.8,15.06,11.2v18.59s-8.94,23.3-36.47,0c0,0-9.65-9.41-31.76-7.06Z" fill="#FA744A"/><path d="M220,432.26H166.83s-15.06-.8-15.06,11.2v18.59s8.94,23.3,36.47,0c0,0,9.65-9.41,31.77-7.06Z" fill="#FA744A"/></g></g></svg>