<svg width="252" height="57" viewBox="0 0 252 57" fill="none" xmlns="http://www.w3.org/2000/svg">
<g clip-path="url(#clip0)">
<path d="M13.138 23.2083H3.1281V30.4314H12.5124V32.6297H3.1281V42.0512H0V20.9471H13.138V23.2083Z" fill="#333333"/>
<path d="M31.2812 42.3339C28.0986 42.4704 24.9784 41.4187 22.5226 39.3818C21.4494 38.4257 20.601 37.2424 20.0384 35.9173C19.4758 34.5922 19.2132 33.1583 19.2693 31.719C19.2139 30.2079 19.4874 28.7029 20.0709 27.309C20.6544 25.915 21.5338 24.6656 22.6477 23.6479C25.2104 21.4766 28.4944 20.3552 31.8443 20.5074C34.9749 20.3651 38.0446 21.4074 40.4466 23.4281C41.5702 24.4161 42.4554 25.6476 43.0352 27.0295C43.6151 28.4114 43.8744 29.9076 43.7937 31.4049C43.8669 32.9228 43.6015 34.4379 43.0171 35.8397C42.4326 37.2415 41.5437 38.4945 40.4153 39.5074C37.8425 41.5873 34.5739 42.5987 31.2812 42.3339ZM31.5628 22.8942C29.1805 22.7763 26.8429 23.5736 25.025 25.1239C24.1811 25.929 23.5184 26.9059 23.0814 27.9892C22.6444 29.0726 22.4432 30.2372 22.4913 31.4049C22.4472 32.5722 22.6502 33.7356 23.087 34.8183C23.5238 35.901 24.1843 36.8784 25.025 37.6859C26.7893 39.298 29.1168 40.1447 31.5002 40.0413C33.9355 40.2002 36.3366 39.4004 38.1944 37.8115C39.0337 37.0059 39.6891 36.0273 40.1157 34.943C40.5423 33.8587 40.7299 32.6946 40.6656 31.5306C40.7196 30.3462 40.5247 29.1636 40.0935 28.0598C39.6624 26.956 39.0046 25.9557 38.1631 25.1239C36.3584 23.5505 34.0112 22.75 31.6253 22.8942H31.5628Z" fill="#333333"/>
<path d="M77.7962 42.0513V21.1041H84.9283C94.0206 21.1041 98.5564 24.5168 98.5355 31.3422C98.5715 32.8497 98.2465 34.3439 97.5879 35.6992C96.9293 37.0545 95.9562 38.2313 94.7505 39.1306C91.7896 41.2359 88.2074 42.2761 84.5842 42.0827L77.7962 42.0513ZM80.9243 23.2083V39.7273H84.8032C87.5526 39.9268 90.2907 39.2092 92.5921 37.686C93.5384 36.9493 94.292 35.9926 94.7879 34.8984C95.2838 33.8041 95.5072 32.6052 95.4387 31.405C95.4387 26.0347 91.9352 23.3339 84.897 23.3339L80.9243 23.2083Z" fill="#333333"/>
<path d="M122.715 34.2314V42.1455H119.587V21.167H126.688C128.945 21.054 131.182 21.6346 133.101 22.8314C133.831 23.3505 134.419 24.045 134.813 24.8516C135.206 25.6581 135.392 26.5507 135.353 27.4479C135.366 28.4067 135.141 29.3536 134.699 30.2034C134.257 31.0532 133.611 31.7791 132.819 32.3157C130.808 33.6931 128.4 34.3664 125.969 34.2314H122.715ZM122.715 23.3967V32.0017H125.844C127.52 32.116 129.191 31.7104 130.63 30.8397C131.142 30.4935 131.561 30.0258 131.85 29.478C132.14 28.9302 132.29 28.3192 132.287 27.6992C132.287 24.9355 130.285 23.5223 126.25 23.5223L122.715 23.3967Z" fill="#333333"/>
<path d="M156.656 42.2083H143.267V21.1983H146.395V40.0413H156.781L156.656 42.2083Z" fill="#333333"/>
<path d="M184.558 42.2397H181.43L178.708 36.3669H167.76L165.164 42.2397H161.66L171.576 21.2926H174.704L184.558 42.2397ZM177.52 34.1372L173.516 25.124C173.351 24.6644 173.225 24.1917 173.14 23.7107C173.045 24.1962 172.898 24.67 172.702 25.124L168.605 34.1372H177.52Z" fill="#333333"/>
<path d="M205.391 21.324L196.852 34.5454V42.3025H193.943V34.5454L185.559 21.2926H189L194.756 30.714C194.756 30.714 195.037 31.2479 195.382 32.0016C195.576 31.5546 195.806 31.124 196.07 30.714L202.138 21.2926L205.391 21.324Z" fill="#333333"/>
<path d="M225.568 42.3025H211.898V21.3239H225.004V23.5537H214.963V30.5256H224.348V32.7239H214.963V40.0727H225.599L225.568 42.3025Z" fill="#333333"/>
<path d="M252 42.3653H248.434L243.992 36.4611C243.646 35.9771 243.27 35.5156 242.866 35.0793C242.519 34.7201 242.131 34.4038 241.709 34.1372C241.328 33.883 240.904 33.7019 240.458 33.6033C239.958 33.4689 239.442 33.4055 238.925 33.4149H236.454V42.3339H233.325V21.3554H241.021C242.074 21.3355 243.125 21.4516 244.149 21.7008C245.038 21.8918 245.886 22.243 246.651 22.7372C247.317 23.1951 247.872 23.7959 248.278 24.4959C248.634 25.1796 248.835 25.9337 248.868 26.7046C248.9 27.4754 248.763 28.2439 248.466 28.9554C248.185 29.5678 247.793 30.1218 247.308 30.5884C246.77 31.0887 246.158 31.5019 245.494 31.8132C244.746 32.1623 243.958 32.4155 243.148 32.5669C243.537 32.7135 243.914 32.8921 244.274 33.1008C244.598 33.312 244.902 33.5539 245.181 33.8231C245.486 34.1156 245.768 34.4305 246.026 34.7653C246.307 35.1107 246.62 35.4876 246.964 35.9587L252 42.3653ZM236.579 23.5223V31.1851H240.677C241.385 31.1946 242.091 31.0994 242.772 30.9025C243.377 30.7438 243.949 30.4779 244.462 30.1173C244.923 29.7813 245.298 29.34 245.556 28.8297C245.812 28.3019 245.941 27.7209 245.932 27.1339C245.957 26.6223 245.849 26.113 245.619 25.656C245.388 25.199 245.043 24.81 244.618 24.5273C243.48 23.8657 242.179 23.5392 240.864 23.5851L236.579 23.5223Z" fill="#333333"/>
<path d="M60.7788 11.6198C57.2002 11.6115 53.7645 13.0285 51.2252 15.5602C48.686 18.0918 47.2507 21.5312 47.2341 25.124V25.3124C47.0222 29.9283 48.3789 34.4796 51.0817 38.2198C51.5196 38.9421 51.5196 38.9735 51.8637 39.5074L54.7103 43.9669C54.7839 44.0869 54.8804 44.1912 54.9942 44.2736C55.1081 44.356 55.2371 44.4149 55.3737 44.447C55.5104 44.4792 55.6521 44.4838 55.7905 44.4607C55.929 44.4376 56.0615 44.3872 56.1805 44.3124C56.4156 44.1577 56.5825 43.9182 56.6465 43.6434C56.7106 43.3687 56.6669 43.0797 56.5246 42.8364L53.678 38.3454C53.4015 37.954 53.1507 37.5449 52.9273 37.1206C50.4063 33.733 49.1448 29.5669 49.3612 25.3438V25.124C49.3612 22.0922 50.5609 19.1845 52.6962 17.0407C54.8316 14.8969 57.7277 13.6925 60.7475 13.6925C63.7674 13.6925 66.6635 14.8969 68.7989 17.0407C70.9342 19.1845 72.1338 22.0922 72.1338 25.124V25.438C72.3178 29.6619 71.0475 33.8207 68.5365 37.2149L67.7858 38.4397C67.4417 38.9421 66.7535 40.0413 64.9392 42.8992C64.7859 43.1366 64.7327 43.4254 64.7914 43.7022C64.85 43.9789 65.0157 44.221 65.252 44.3752C65.426 44.498 65.6336 44.5638 65.8463 44.5636C66.0266 44.5589 66.203 44.5108 66.3609 44.4233C66.5188 44.3359 66.6534 44.2117 66.7535 44.0611C68.5365 41.2033 69.256 40.1355 69.5688 39.6016C69.8816 39.0678 69.9442 39.0364 70.3821 38.314C73.0892 34.5864 74.4567 30.047 74.2609 25.438V25.124C74.2363 21.5446 72.8069 18.1194 70.283 15.5914C67.759 13.0633 64.344 11.6363 60.7788 11.6198Z" fill="#FFFF00"/>
<path d="M66.0971 45.6942H55.3364C55.0543 45.6942 54.7838 45.8067 54.5843 46.007C54.3849 46.2072 54.2728 46.4788 54.2728 46.762C54.2728 47.0452 54.3849 47.3168 54.5843 47.517C54.7838 47.7173 55.0543 47.8298 55.3364 47.8298H66.0658C66.2055 47.834 66.3446 47.8105 66.4752 47.7606C66.6059 47.7108 66.7254 47.6356 66.8271 47.5394C66.9288 47.4431 67.0106 47.3277 67.0678 47.1997C67.125 47.0717 67.1566 46.9336 67.1606 46.7934C67.1607 46.5072 67.0497 46.2323 66.8511 46.0271C66.6525 45.8218 66.382 45.7024 66.0971 45.6942Z" fill="#FE330A"/>
<path d="M65.3775 48.7719H55.9932C55.7111 48.7719 55.4406 48.8844 55.2411 49.0846C55.0417 49.2849 54.9296 49.5565 54.9296 49.8397C54.9296 50.1229 55.0417 50.3944 55.2411 50.5947C55.4406 50.7949 55.7111 50.9074 55.9932 50.9074H65.3775C65.6596 50.9074 65.9301 50.7949 66.1295 50.5947C66.329 50.3944 66.441 50.1229 66.441 49.8397C66.441 49.5565 66.329 49.2849 66.1295 49.0846C65.9301 48.8844 65.6596 48.7719 65.3775 48.7719Z" fill="#FE330A"/>
<path d="M64.3761 51.8496H57.0251C56.743 51.8496 56.4725 51.9621 56.2731 52.1623C56.0736 52.3626 55.9615 52.6342 55.9615 52.9173C55.9615 53.2005 56.0736 53.4721 56.2731 53.6724C56.4725 53.8726 56.743 53.9851 57.0251 53.9851H64.3761C64.5158 53.9851 64.6541 53.9575 64.7831 53.9038C64.9122 53.8502 65.0294 53.7715 65.1282 53.6724C65.2269 53.5732 65.3053 53.4555 65.3587 53.326C65.4122 53.1964 65.4397 53.0576 65.4397 52.9173C65.4397 52.7771 65.4122 52.6383 65.3587 52.5087C65.3053 52.3792 65.2269 52.2615 65.1282 52.1623C65.0294 52.0632 64.9122 51.9845 64.7831 51.9309C64.6541 51.8772 64.5158 51.8496 64.3761 51.8496Z" fill="#FE330A"/>
<path d="M60.6851 57C61.352 57.0444 62.0155 56.8732 62.5784 56.5115C63.1413 56.1498 63.5741 55.6166 63.8132 54.9901H57.7447C57.9734 55.5853 58.3773 56.0965 58.9026 56.4555C59.4279 56.8146 60.0497 57.0045 60.6851 57Z" fill="#FE330A"/>
<path d="M61.1544 5.77851C61.2721 5.77859 61.3886 5.75485 61.497 5.7087C61.6054 5.66256 61.7033 5.59497 61.7851 5.50996C61.8668 5.42495 61.9307 5.32427 61.9728 5.21393C62.015 5.10359 62.0345 4.98586 62.0303 4.86777V0.879339C62.0225 0.648613 61.9277 0.429469 61.7651 0.266227C61.6025 0.102985 61.3842 0.0078279 61.1544 0C60.9221 0 60.6994 0.0926443 60.5351 0.257552C60.3708 0.42246 60.2786 0.646124 60.2786 0.879339V4.86777C60.2784 5.10397 60.3697 5.33099 60.5331 5.50091C60.6965 5.67083 60.9193 5.77037 61.1544 5.77851Z" fill="#01A0C6"/>
<path d="M70.5388 8.79339C70.6991 8.89201 70.8826 8.94619 71.0706 8.95042C71.2372 8.97919 71.4086 8.95891 71.564 8.89204C71.7195 8.82517 71.8523 8.71455 71.9465 8.57356L74.2613 5.43306C74.35 5.33791 74.4174 5.22472 74.4589 5.10116C74.5003 4.9776 74.5149 4.84654 74.5015 4.71686C74.4882 4.58717 74.4472 4.46187 74.3815 4.34943C74.3158 4.23699 74.2267 4.14003 74.1204 4.06511C74.0142 3.99019 73.8931 3.93906 73.7654 3.91516C73.6378 3.89127 73.5065 3.89517 73.3804 3.9266C73.2544 3.95804 73.1366 4.01628 73.0349 4.09738C72.9332 4.17848 72.8501 4.28055 72.7911 4.3967L70.5075 7.5372C70.3579 7.71376 70.2783 7.93953 70.2841 8.1713C70.2899 8.40306 70.3806 8.62455 70.5388 8.79339Z" fill="#01A0C6"/>
<path d="M77.6083 17.2727L81.3307 15.9851C81.5547 15.9102 81.7399 15.749 81.8455 15.5369C81.9511 15.3249 81.9685 15.0795 81.8938 14.8546C81.8191 14.6297 81.6585 14.4438 81.4474 14.3378C81.2362 14.2318 80.9917 14.2143 80.7677 14.2893L77.014 15.7025C76.9008 15.7413 76.7963 15.8023 76.7067 15.8818C76.617 15.9613 76.5439 16.0579 76.4916 16.1659C76.4393 16.2739 76.4087 16.3912 76.4018 16.5111C76.3948 16.631 76.4115 16.7511 76.4509 16.8645C76.5181 17.036 76.634 17.1839 76.7841 17.29C76.9342 17.396 77.112 17.4555 77.2955 17.4612L77.6083 17.2727Z" fill="#01A0C6"/>
<path d="M49.768 8.54214C49.8487 8.65857 49.9563 8.75365 50.0816 8.81927C50.2069 8.8849 50.3461 8.91911 50.4875 8.919C50.6623 8.96044 50.8444 8.96044 51.0192 8.919C51.2123 8.78008 51.3433 8.57068 51.3843 8.3358C51.4252 8.10092 51.3728 7.85929 51.2382 7.66281L48.9234 4.52231C48.8577 4.42739 48.7741 4.34641 48.6772 4.28398C48.5803 4.22156 48.4721 4.17892 48.3588 4.1585C48.2455 4.13808 48.1293 4.14029 48.0169 4.16499C47.9044 4.1897 47.7979 4.23642 47.7034 4.30247C47.5104 4.4414 47.3794 4.65079 47.3384 4.88567C47.2975 5.12055 47.3499 5.36219 47.4845 5.55867L49.768 8.54214Z" fill="#01A0C6"/>
<path d="M44.5127 15.7025L40.6652 14.2265C40.5567 14.182 40.4403 14.1606 40.3232 14.1638C40.2062 14.1669 40.091 14.1945 39.9851 14.2447C39.8792 14.2949 39.7849 14.3666 39.7081 14.4554C39.6313 14.5442 39.5737 14.648 39.539 14.7603C39.4948 14.8692 39.4735 14.9861 39.4766 15.1036C39.4797 15.2212 39.5072 15.3368 39.5572 15.4431C39.6072 15.5494 39.6787 15.6441 39.7671 15.7212C39.8555 15.7983 39.959 15.8561 40.0708 15.8909L43.7933 17.2099H44.1061C44.2896 17.2043 44.4674 17.1448 44.6175 17.0387C44.7676 16.9327 44.8834 16.7847 44.9507 16.6132C44.9799 16.4346 44.9535 16.2513 44.8752 16.0883C44.7968 15.9253 44.6702 15.7906 44.5127 15.7025Z" fill="#01A0C6"/>
<path d="M54.2103 27.2281L57.7763 43.276C58.0266 44.3124 59.6219 43.8727 59.4029 42.8363C58.2143 37.4661 56.9943 32.1273 55.8056 26.7884C55.5867 25.7206 53.9601 26.1603 54.2103 27.2281Z" fill="#01A0C6"/>
<path d="M65.6903 26.7884L62.0305 42.8364C61.8115 43.8727 63.4068 44.3124 63.6258 43.276L67.2857 27.2595C67.5359 26.1917 65.9093 25.7521 65.6903 26.7884Z" fill="#01A0C6"/>
<path d="M51.113 30.8083C52.3955 31.1851 54.898 32.6298 56.2118 32.2529C57 31.9696 57.7552 31.601 58.464 31.1537L60.2783 30.2744C61.2167 29.8347 61.029 30.2744 60.4347 29.8975C61.7798 30.557 63.9382 32.3157 65.471 32.3157C67.0037 32.3157 69.3185 30.4 70.6949 29.7091C72.0712 29.0182 70.6949 27.762 69.8503 28.2645L67.7857 29.3322L65.9402 30.2744C65.0017 30.7769 65.1894 30.2744 65.9402 30.6827C64.3606 29.7234 62.6955 28.9139 60.9665 28.2645C59.8091 27.9504 57.4317 29.7405 56.462 30.243C55.4923 30.7455 55.5861 30.243 56.0866 30.5256L54.5852 30.0546L51.4571 29.1438C51.26 29.1221 51.0616 29.1706 50.8966 29.281C50.7315 29.3913 50.6105 29.5565 50.5545 29.7474C50.4986 29.9384 50.5113 30.143 50.5906 30.3255C50.6698 30.508 50.8104 30.6566 50.9878 30.7455L51.113 30.8083Z" fill="#01A0C6"/>
</g>
<defs>
<clipPath id="clip0">
<rect width="252" height="57" fill="white"/>
</clipPath>
</defs>
</svg>
