<svg width="100" height="100" viewBox="0 0 100 100" fill="none" xmlns="http://www.w3.org/2000/svg">
<path fill-rule="evenodd" clip-rule="evenodd" d="M23.25 79L0 67V32.656L51.75 7L75 19V53.5L23.25 79Z" fill="#24AE5F"/>
<path fill-rule="evenodd" clip-rule="evenodd" d="M0 64.554V67.537L23.193 79.469L74.815 54.113V51.13L23.193 76.486L0 64.554ZM0 59.334V62.317L23.193 74.249L74.815 48.894V45.91L23.193 71.266L0 59.334ZM0 48.893V51.876L23.193 63.808L74.815 38.453V35.47L23.193 60.825L0 48.893ZM0 54.113V57.096L23.193 69.028L74.815 43.672V40.689L23.193 66.046L0 54.113ZM0 43.673V46.656L23.193 58.588L74.815 33.232V30.25L23.193 55.605L0 43.673ZM23.251 45.135L0 33.084V36.097L23.251 48.147L75.003 22.54V19.527L23.251 45.135ZM0 38.453V41.436L23.251 53.368L75.003 28.012V25.029L23.251 50.385L0 38.453Z" fill="#1E9450"/>
<path fill-rule="evenodd" clip-rule="evenodd" d="M48.133 91.884L24.998 79.951V50.647L76.493 25.292L100 37.299V66.299L48.133 91.884Z" fill="#24AE5F"/>
<path fill-rule="evenodd" clip-rule="evenodd" d="M25 77.0849V80.0679L48.25 91.9999L100 66.6439V63.6609L48.25 89.0169L25 77.0849ZM25 71.8649V74.8479L48.25 86.7799L100 61.4239V58.4409L48.25 83.7959L25 71.8649ZM25 61.4239V64.4069L48.25 76.3389L100 50.9829V47.9999L48.25 73.3559L25 61.4239ZM25 66.6439V69.6269L48.25 81.5599L100 56.2039V53.2209L48.25 78.5759L25 66.6439ZM25 56.2039V59.1869L48.25 71.1189L100 45.7629V42.7799L48.25 68.1359L25 56.2039ZM48.25 62.5709L25 50.6399V53.6229L48.25 65.5549L100 40.1989V37.2159L48.25 62.5709Z" fill="#1E9450"/>
<path opacity="0.1" d="M23.193 45.165L0 33.25V67.594L23.25 79.5L23.193 45.165ZM48.193 62.6L25 50.685V79.977L48.25 91.883L48.193 62.6Z" fill="black"/>
<path fill-rule="evenodd" clip-rule="evenodd" d="M59.9961 50.609L48.6331 56.068L38.9311 50.848L52.0691 44.412C52.0691 44.412 51.1571 41.792 51.7151 41.393C51.7051 41.44 32.3291 51.085 32.3291 51.085L48.9121 59.376L65.9601 50.853C65.9601 50.853 64.2911 50.908 62.8121 50.847C61.3101 50.787 59.9961 50.609 59.9961 50.609ZM73.4421 47.113L93.5001 37.5L77.2011 28.651L60.1691 37.166C62.7511 37.033 64.8661 38.144 64.8661 38.144L76.9921 32.204L87.4401 37.425L73.4501 44.145L73.4421 47.113Z" fill="#1E9450"/>
<path fill-rule="evenodd" clip-rule="evenodd" d="M59.9961 50.609L48.6331 56.068L38.9311 50.848L52.0691 44.412C52.0691 44.412 51.1571 41.792 51.7151 41.393C51.7051 41.44 32.3291 51.085 32.3291 51.085L48.9121 59.376L65.9601 50.853C65.9601 50.853 64.2911 50.908 62.8121 50.847C61.3101 50.787 59.9961 50.609 59.9961 50.609ZM73.4421 47.113L93.5001 37.5L77.2011 28.651L60.1691 37.166C62.7511 37.033 64.8661 38.144 64.8661 38.144L76.9921 32.204L87.4401 37.425L73.4501 44.145L73.4421 47.113Z" fill="#1E9450"/>
<path fill-rule="evenodd" clip-rule="evenodd" d="M34.583 32.609L23.22 38.068L13.518 32.848L26.656 26.412C26.656 26.412 25.743 23.792 26.302 23.393C26.292 23.44 6.91602 33.085 6.91602 33.085L23.499 41.376L40.547 32.853C40.547 32.853 38.878 32.908 37.399 32.847C35.897 32.787 34.583 32.609 34.583 32.609ZM48.029 29.113L68.087 19.5L51.788 10.651L34.756 19.166C37.338 19.033 39.453 20.144 39.453 20.144L51.579 14.204L62.027 19.425L48.038 26.145L48.029 29.113Z" fill="#1E9450"/>
<path d="M38.8221 28.9579C39.4983 28.9792 40.1727 28.8769 40.8121 28.6559L37.2821 26.7859L36.9821 26.8639L36.5981 26.9869C36.0657 27.1468 35.5288 27.2912 34.9881 27.4199C34.4371 27.5509 33.8771 27.6329 33.3081 27.6659C32.7391 27.6989 32.1721 27.6649 31.6061 27.5649C31.014 27.4558 30.4427 27.2543 29.9131 26.9679C29.3391 26.6639 28.9401 26.3379 28.7171 25.9909C28.4941 25.6429 28.4111 25.2969 28.4671 24.9509C28.5241 24.6049 28.7031 24.2659 29.0051 23.9329C29.3423 23.5711 29.73 23.2599 30.1561 23.0089L28.8561 22.3199L29.8371 21.7999L31.1371 22.4889C31.6985 22.2518 32.2785 22.0612 32.8711 21.9189C33.4716 21.774 34.0849 21.6886 34.7021 21.6639C35.3342 21.641 35.9669 21.6869 36.5891 21.8009C37.2419 21.9212 37.8761 22.127 38.4751 22.4129L36.1141 23.6639C35.6263 23.4246 35.0932 23.292 34.5501 23.2749C33.9691 23.2489 33.4901 23.3359 33.1131 23.5359L36.1021 25.1199L36.6111 24.9569L37.1701 24.7859C38.2151 24.4709 39.1261 24.2839 39.9011 24.2239C40.6761 24.1649 41.3501 24.1759 41.9211 24.2549C42.4921 24.3349 42.9771 24.4599 43.3761 24.6299C43.7751 24.8009 44.1161 24.9609 44.3971 25.1099C44.6451 25.2409 44.8961 25.4389 45.1511 25.7039C45.4061 25.9689 45.5561 26.2799 45.6001 26.6379C45.6451 26.9959 45.5411 27.3909 45.2911 27.8219C45.0401 28.2529 44.5271 28.7039 43.7531 29.1749L45.1881 29.9359L44.2071 30.4559L42.7721 29.6949C41.4401 30.3049 40.0821 30.6129 38.6971 30.6189C37.3121 30.6259 35.9001 30.3059 34.4601 29.6599L36.8041 28.4179C37.4341 28.7629 38.1071 28.9429 38.8221 28.9579ZM42.2721 27.7289C42.4151 27.5759 42.5051 27.4179 42.5411 27.2549C42.5774 27.0884 42.5511 26.9143 42.4671 26.7659C42.3811 26.6029 42.2031 26.4499 41.9321 26.3059C41.5047 26.0758 41.0217 25.9692 40.5371 25.9979L38.5491 26.4169L41.7911 28.1349C41.9691 28.0179 42.1291 27.8829 42.2721 27.7289ZM31.6671 24.3909C31.5556 24.497 31.4789 24.6344 31.4471 24.7849C31.435 24.8568 31.4374 24.9304 31.4542 25.0014C31.4711 25.0723 31.502 25.1392 31.5451 25.1979C31.6371 25.3349 31.8001 25.4659 32.0371 25.5909C32.4091 25.7879 32.8121 25.8789 33.2481 25.8629C33.6831 25.8469 34.2291 25.7299 34.8851 25.5139L32.1321 24.0559C31.9605 24.1425 31.8036 24.2556 31.6671 24.3909Z" fill="#1E9450"/>
<path d="M65.3709 47.3007C66.0471 47.3215 66.7214 47.2192 67.3609 46.9987L63.8319 45.1287L63.5319 45.2067L63.1479 45.3297C62.6249 45.4867 62.0889 45.6317 61.5379 45.7627C60.9869 45.8937 60.4269 45.9757 59.8579 46.0087C59.2889 46.0417 58.7209 46.0077 58.1559 45.9077C57.5638 45.7986 56.9925 45.5971 56.4629 45.3107C55.8889 45.0067 55.4899 44.6807 55.2669 44.3337C55.0439 43.9857 54.9609 43.6397 55.0169 43.2937C55.0729 42.9477 55.2529 42.6077 55.5549 42.2747C55.8921 41.9129 56.2798 41.6017 56.7059 41.3507L55.4059 40.6617L56.3869 40.1417L57.6869 40.8307C58.2483 40.5936 58.8283 40.403 59.4209 40.2607C60.0214 40.1158 60.6347 40.0304 61.2519 40.0057C61.884 39.9828 62.5167 40.0287 63.1389 40.1427C63.7917 40.263 64.4259 40.4688 65.0249 40.7547L62.6639 42.0057C62.1762 41.7664 61.643 41.6338 61.0999 41.6167C60.5189 41.5907 60.0399 41.6777 59.6629 41.8777L62.6519 43.4617L63.1609 43.2997L63.7199 43.1287C64.7649 42.8137 65.6759 42.6267 66.4509 42.5667C67.2259 42.5087 67.8999 42.5187 68.4709 42.5977C69.0419 42.6777 69.5269 42.8027 69.9259 42.9717C70.3249 43.1427 70.6659 43.3027 70.9469 43.4517C71.1949 43.5827 71.4459 43.7807 71.7009 44.0457C71.9559 44.3107 72.1059 44.6217 72.1499 44.9797C72.1949 45.3377 72.0909 45.7327 71.8409 46.1637C71.5899 46.5947 71.0769 47.0457 70.3029 47.5167L71.7379 48.2777L70.7569 48.7977L69.3219 48.0367C67.9899 48.6467 66.6319 48.9547 65.2469 48.9607C63.8619 48.9677 62.4499 48.6477 61.0099 48.0017L63.3539 46.7597C63.9718 47.1025 64.6644 47.2883 65.3709 47.3007ZM68.8209 46.0717C68.9639 45.9187 69.0539 45.7607 69.0909 45.5977C69.1272 45.4312 69.1009 45.2571 69.0169 45.1087C68.9309 44.9457 68.7529 44.7927 68.4819 44.6497C68.0545 44.4196 67.5715 44.313 67.0869 44.3417C66.5959 44.3697 65.9329 44.5087 65.0989 44.7597L68.3409 46.4777C68.5167 46.3623 68.6779 46.226 68.8209 46.0717ZM58.2159 42.7337C58.1044 42.8398 58.0277 42.9772 57.9959 43.1277C57.9838 43.1996 57.9862 43.2732 58.0031 43.3442C58.0199 43.4151 58.0508 43.482 58.0939 43.5407C58.1849 43.6777 58.3489 43.8087 58.5859 43.9337C58.9579 44.1307 59.3609 44.2217 59.7959 44.2057C60.2309 44.1897 60.7769 44.0727 61.4329 43.8567L58.6799 42.3987C58.5087 42.4855 58.3522 42.5986 58.2159 42.7337Z" fill="#1E9450"/>
</svg>
