<svg xmlns="http://www.w3.org/2000/svg" viewBox="0 0 193.6 193.6"><defs><style>.cls-1,.cls-2,.cls-3{fill:#040000;}.cls-2{opacity:0.65;}.cls-3{opacity:0.79;}</style></defs><title>資產 2</title><g id="圖層_2" data-name="圖層 2"><g id="圖層_1-2" data-name="圖層 1"><path class="cls-1" d="M37.34,48.45V94.24H88.86V48.45ZM83,88.3H43.28V54.45H83Z"/><rect class="cls-1" x="60.21" y="54.45" width="5.04" height="17.03"/><polyline class="cls-1" points="42.96 124.98 121.86 124.98 121.86 130.19 40.25 130.19 40.25 124.98 42.96 124.98"/><polyline class="cls-1" points="120.24 124.64 148.27 111.46 150.67 116.56 121.67 130.19 119.28 125.09 120.24 124.64"/><path class="cls-1" d="M116.22,85.42V103c-1.86,11.59-14.65,12.14-18.5,9.41s-2-13.15-2-13.15c-.27-10.23-8.4-10.65-8.4-10.65l0,0a19.25,19.25,0,0,0-2.71,5.51l4.3.14a9.83,9.83,0,0,1,2,7.19c-.47,4.37-1.58,11.55,2.27,14.8a10.4,10.4,0,0,1-1-.41,19.4,19.4,0,0,0,24-30.4Z"/><path class="cls-1" d="M40.25,125.3s3-13.63,6.25-16-2.22,15.53-2.22,15.53l-.39.5Z"/><polygon class="cls-2" points="77.33 117.38 77.33 117.38 77.33 117.37 77.33 117.38"/><path class="cls-1" d="M81.6,125.3H76.94a11.55,11.55,0,0,1,.39,3,11.72,11.72,0,1,1-23.43,0,11.55,11.55,0,0,1,.39-3H49.63a16.09,16.09,0,0,0-.38,3.49,16.37,16.37,0,0,0,32.73,0A16.09,16.09,0,0,0,81.6,125.3Z"/><path class="cls-1" d="M83.63,119.67l3.36-1a22.46,22.46,0,1,0-43.1,11.71H47.3a19,19,0,1,1,36.34-10.63Z"/><path class="cls-3" d="M84.12,125.3a19.49,19.49,0,0,1-1,5.1h2.66a22.72,22.72,0,0,0,1.3-5.1Z"/><path class="cls-1" d="M57,94.24c.13,0,5,2.75,5.38,6.19l6.62.43s-.17-4.21-3.13-6.62Z"/><path class="cls-1" d="M149.2,121.06a12.35,12.35,0,1,1-22,11l-4.5,2.55a17.69,17.69,0,0,0,32.29-14.4Z"/><path class="cls-1" d="M129.89,116.31a10.59,10.59,0,0,1,19.45.73l4.3-1.41a14.82,14.82,0,0,0-27.48-2.18Z"/><path class="cls-1" d="M124.21,77.85v0a1.46,1.46,0,0,1-.22,0,3.15,3.15,0,0,1,0-6.29l.22,0v0h7.46a8,8,0,1,0-.26,6.28Z"/><rect class="cls-1" x="123.1" y="66.42" width="9.68" height="5.05"/><rect class="cls-1" x="122.84" y="77.65" width="9.94" height="4.88"/><rect class="cls-1" x="106.72" y="66.25" width="13.19" height="5.31" transform="translate(49.63 -47.43) rotate(30)"/><path class="cls-1" d="M125.75,82.54c.53.79,7.5,7.24,9.9,23.1l5.16-.43s-.36-13.11-8.3-22.67-7.8-1-7.8-1Z"/><rect class="cls-1" x="116.22" y="85.42" width="6.41" height="13.86"/><path d="M96.8,0a96.8,96.8,0,1,0,96.8,96.8A96.8,96.8,0,0,0,96.8,0Zm.11,184a87.17,87.17,0,1,1,87.16-87.16A87.16,87.16,0,0,1,96.91,184Z"/></g></g></svg>