<svg width="172" height="171" viewBox="0 0 172 171" fill="none" xmlns="http://www.w3.org/2000/svg">
<path d="M165.369 55.2101L155.285 58.0608C158.722 66.8037 160.481 76.1158 160.469 85.5098C160.469 126.914 126.905 160.483 85.4958 160.483C44.0861 160.483 10.5224 126.919 10.5224 85.5098C10.5224 44.1001 44.0878 10.5364 85.4958 10.5364C95.0293 10.523 104.478 12.3321 113.332 15.8665L116.167 5.69281C106.361 1.91683 95.9421 -0.0132026 85.4347 6.7971e-05C38.2504 6.7971e-05 0 38.2504 0 85.4348C0 132.619 38.2504 170.87 85.4347 170.87C132.619 170.87 170.869 132.619 170.869 85.4348C170.882 75.1099 169.018 64.8687 165.369 55.2101Z" fill="#1E9450"/>
<path d="M88.7384 103.643L52.8145 68.8423C51.6111 67.6765 49.6904 67.707 48.5246 68.9105L43.6999 73.8909C42.5341 75.0944 42.5646 77.015 43.768 78.1808L79.6919 112.981C80.8953 114.147 82.816 114.117 83.9818 112.913L88.8065 107.933C89.9723 106.729 89.9418 104.809 88.7384 103.643Z" fill="#1E9450"/>
<path d="M84.0947 113.313L169.7 27.7072C170.885 26.5225 170.885 24.6016 169.7 23.4168L164.797 18.5136C163.612 17.3288 161.691 17.3288 160.507 18.5136L74.901 104.119C73.7163 105.304 73.7163 107.225 74.901 108.41L79.8042 113.313C80.989 114.498 82.9099 114.498 84.0947 113.313Z" fill="#1E9450"/>
</svg>
