<svg width="118" height="105" viewBox="0 0 118 105" fill="none" xmlns="http://www.w3.org/2000/svg">
<rect width="52" height="13" rx="6.5" fill="#FFDE33"/>
<rect x="60" width="45" height="13" rx="6.5" fill="#FFDE33"/>
<rect x="52" y="32" width="61" height="13" rx="6.5" fill="#FFDE33"/>
<rect y="92" width="52" height="13" rx="6.5" fill="#FFDE33"/>
<rect x="32" y="59" width="30" height="13" rx="6.5" transform="rotate(90 32 59)" fill="#FFDE33"/>
<rect x="32" y="16" width="24" height="13" rx="6.5" transform="rotate(90 32 16)" fill="#FFDE33"/>
<path d="M68.5 50C72.0899 50 75 52.9101 75 56.5L75 68L62 68L62 56.5C62 52.9101 64.9101 50 68.5 50Z" fill="#FFDE33"/>
<path d="M68.5 105C64.9101 105 62 102.09 62 98.5L62 75L75 75L75 98.5C75 102.09 72.0899 105 68.5 105Z" fill="#FFDE33"/>
<rect x="52" y="57" width="52" height="13" rx="6.5" transform="rotate(-180 52 57)" fill="#FFDE33"/>
<path d="M92.5 50C88.1 49.6 86.6667 54.8333 86.5 57.5V70.602C87.7 81.802 91.6667 88.8333 93.5 91C95 92.6667 96.5 95.7 102.5 100.5C108.5 105.3 115 104.667 116 103C119.2 97.8 115.667 93.8333 113.5 92.5C111.5 91.3333 107.6 87.6 104 84C100.4 80.4 98.5 72.6667 98.5 69V57.5C98.3333 55.1667 96.9 50.4 92.5 50Z" fill="#FFDE33"/>
</svg>
