<svg xmlns="http://www.w3.org/2000/svg" viewBox="0 0 289.75 512"><defs><style>.cls-1{fill:#FA744A;}</style></defs><title>資產 1</title><g id="圖層_2" data-name="圖層 2"><g id="圖層_1-2" data-name="圖層 1"><circle class="cls-1" cx="145.76" cy="47.97" r="47.97"/><rect class="cls-1" x="241.04" y="46.07" width="16.21" height="10.12"/><circle class="cls-1" cx="249.15" cy="89.55" r="8.11"/><circle class="cls-1" cx="249.15" cy="56.19" r="8.11"/><circle class="cls-1" cx="232.94" cy="24.19" r="8.11"/><circle class="cls-1" cx="26.13" cy="73.22" r="26.13"/><circle class="cls-1" cx="193.74" cy="137.9" r="26.13"/><circle class="cls-1" cx="263.62" cy="208.02" r="26.13"/><circle class="cls-1" cx="185.45" cy="488" r="24"/><circle class="cls-1" cx="105.28" cy="487.94" r="23.76"/><polygon class="cls-1" points="119.1 8.72 11.73 50.62 70.27 78.98 115.05 62.58 118.01 24.13 119.1 8.72"/><polygon class="cls-1" points="8.67 92.66 81.21 161.53 99.5 111.77 65.69 74.49 66.79 73.78 48.43 62.02 41.33 62.71 30.39 84.96 8.67 92.66"/><polygon class="cls-1" points="92.84 111.77 193.69 111.77 195.63 117.06 209.51 158.74 209.26 367.29 81.46 368.35 81.46 138.76 92.84 111.77"/><rect class="cls-1" x="161.46" y="365.53" width="48.06" height="122.47"/><rect class="cls-1" x="202.89" y="120.06" width="48.06" height="97.84" transform="translate(-53.03 209.95) rotate(-45)"/><rect class="cls-1" x="197.83" y="195.87" width="48.06" height="110.98" transform="translate(200.99 585.97) rotate(-135)"/><rect class="cls-1" x="81.46" y="365.35" width="47.52" height="122.47"/><path class="cls-1" d="M248.87.12A23.92,23.92,0,0,0,224.94,24c0,.15,0,.3,0,.45,6.2-3.45,14,.39,15.91,1.41h0a15.27,15.27,0,0,0,.19-2.06h0a8.1,8.1,0,1,1,11.43,7.75h0S241.28,39.72,241,46.07v.59A24.18,24.18,0,0,0,248.87,48a23.93,23.93,0,0,0,0-47.85Z"/></g></g></svg>