<svg width="41" height="28" viewBox="0 0 41 28" fill="none" xmlns="http://www.w3.org/2000/svg">
<path fill-rule="evenodd" clip-rule="evenodd" d="M13.96 23.036C13.858 23.031 13.745 23.026 13.62 23.023C12.882 23 11.887 23 10.5 23C9.112 23 8.117 23 7.38 23.023C7.255 23.027 7.142 23.031 7.04 23.036C7.16615 23.8633 7.58453 24.6179 8.21929 25.1632C8.85405 25.7085 9.66318 26.0084 10.5 26.0084C11.3368 26.0084 12.146 25.7085 12.7807 25.1632C13.4155 24.6179 13.8338 23.8633 13.96 23.036ZM10.5 28C11.2223 28 11.9375 27.8577 12.6048 27.5813C13.272 27.3049 13.8784 26.8998 14.3891 26.3891C14.8998 25.8784 15.3049 25.272 15.5813 24.6048C15.8577 23.9375 16 23.2223 16 22.5C16 22.056 16 21.743 15.857 21.523C15.518 21 14.372 21 10.5 21C5 21 5 21 5 22.5C5 23.9587 5.57946 25.3576 6.61091 26.3891C7.64236 27.4205 9.04131 28 10.5 28Z" fill="#626262"/>
<path fill-rule="evenodd" clip-rule="evenodd" d="M27.1751 6H32.0001V18H30.0001V8H28.8251L25.9821 22.69L24.0181 22.31L27.1751 6Z" fill="#626262"/>
<path fill-rule="evenodd" clip-rule="evenodd" d="M34.4482 25.9381C34.8997 25.8517 35.3298 25.6772 35.7138 25.4247C36.0979 25.1721 36.4285 24.8463 36.6866 24.4659C36.9448 24.0856 37.1255 23.6581 37.2184 23.2079C37.3113 22.7577 37.3146 22.2936 37.2282 21.8421L39.1922 21.4661C39.4664 22.8988 39.1603 24.3817 38.3411 25.5887C37.522 26.7957 36.2569 27.6278 34.8242 27.9021C33.3915 28.1763 31.9085 27.8702 30.7015 27.051C29.4946 26.2318 28.6624 24.9668 28.3882 23.5341L30.3522 23.1581C30.4385 23.6096 30.613 24.0396 30.8656 24.4237C31.1182 24.8078 31.444 25.1384 31.8243 25.3965C32.2047 25.6547 32.6322 25.8354 33.0824 25.9283C33.5326 26.0212 33.9967 26.0245 34.4482 25.9381Z" fill="#626262"/>
<path fill-rule="evenodd" clip-rule="evenodd" d="M36.3711 18.812C35.7122 18.3505 34.9416 18.0741 34.1396 18.0115C33.3376 17.949 32.5335 18.1025 31.811 18.4562C31.0885 18.8099 30.4741 19.3508 30.0316 20.0226C29.5891 20.6944 29.3348 21.4725 29.2951 22.276L37.9371 20.752C37.6082 19.9707 37.0654 19.2982 36.3711 18.812ZM32.6611 16.097C34.158 15.8331 35.7001 16.1022 37.0191 16.8575C38.3382 17.6128 39.3509 18.8064 39.8811 20.231C40.3371 21.453 39.4231 22.521 38.3951 22.701L29.5321 24.265C28.5051 24.445 27.2811 23.755 27.2901 22.451C27.3011 20.931 27.8445 19.4629 28.8258 18.3021C29.8071 17.1412 31.1642 16.361 32.6611 16.097Z" fill="#626262"/>
<path fill-rule="evenodd" clip-rule="evenodd" d="M17 10H8C7.73478 10 7.48043 10.1054 7.29289 10.2929C7.10536 10.4804 7 10.7348 7 11V13H18V11C18 10.7348 17.8946 10.4804 17.7071 10.2929C17.5196 10.1054 17.2652 10 17 10ZM8 8C7.20435 8 6.44129 8.31607 5.87868 8.87868C5.31607 9.44129 5 10.2044 5 11V14C5 14.2652 5.10536 14.5196 5.29289 14.7071C5.48043 14.8946 5.73478 15 6 15H19C19.2652 15 19.5196 14.8946 19.7071 14.7071C19.8946 14.5196 20 14.2652 20 14V11C20 10.2044 19.6839 9.44129 19.1213 8.87868C18.5587 8.31607 17.7956 8 17 8H8Z" fill="#626262"/>
<path fill-rule="evenodd" clip-rule="evenodd" d="M17 15H10.086C6.113 15 2.934 17.635 2.174 21H16.889C16.9285 21.002 16.9676 20.9908 17 20.968V15ZM10.086 13C4.516 13 0 17.278 0 22.556C0 22.801 0.21 23 0.47 23H16.889C18.055 23 19 22.105 19 21V13.8C19 13.358 18.622 13 18.156 13H10.086Z" fill="#626262"/>
<path fill-rule="evenodd" clip-rule="evenodd" d="M31 2H29C28.4696 2 27.9609 2.21071 27.5858 2.58579C27.2107 2.96086 27 3.46957 27 4C27 4.53043 27.2107 5.03914 27.5858 5.41421C27.9609 5.78929 28.4696 6 29 6H31V2ZM29 0C27.9391 0 26.9217 0.421427 26.1716 1.17157C25.4214 1.92172 25 2.93913 25 4C25 5.06087 25.4214 6.07828 26.1716 6.82843C26.9217 7.57857 27.9391 8 29 8H32.385C32.725 8 33 7.724 33 7.385V0.615C33 0.451892 32.9352 0.295464 32.8199 0.180129C32.7045 0.0647942 32.5481 0 32.385 0H29Z" fill="#626262"/>
<path d="M21.346 1L26.271 1.866L25.924 3.836L21 2.97L21.346 1Z" fill="#626262"/>
<path fill-rule="evenodd" clip-rule="evenodd" d="M28 23H16V21H28V23Z" fill="#626262"/>
<path fill-rule="evenodd" clip-rule="evenodd" d="M26 18H17V16H26V18Z" fill="#626262"/>
</svg>
