<svg width="34" height="34" viewBox="0 0 34 34" fill="none" xmlns="http://www.w3.org/2000/svg">
<g filter="url(#filter0_d)">
<path d="M17 26H9.2C9.2 25.3104 9.47393 24.6491 9.96152 24.1615C10.4491 23.6739 11.1104 23.4 11.8 23.4V7.8H4V3.9H22.2V7.8H14.4V23.4C15.0896 23.4 15.7509 23.6739 16.2385 24.1615C16.7261 24.6491 17 25.3104 17 26ZM30 0V26H27.4V16.9H20.9V26H18.3V15.6C18.3 14.9104 18.5739 14.2491 19.0615 13.7615C19.5491 13.2739 20.2104 13 20.9 13H27.4V0H30Z" fill="#626262"/>
</g>
<defs>
<filter id="filter0_d" x="0" y="0" width="34" height="34" filterUnits="userSpaceOnUse" color-interpolation-filters="sRGB">
<feFlood flood-opacity="0" result="BackgroundImageFix"/>
<feColorMatrix in="SourceAlpha" type="matrix" values="0 0 0 0 0 0 0 0 0 0 0 0 0 0 0 0 0 0 127 0" result="hardAlpha"/>
<feOffset dy="4"/>
<feGaussianBlur stdDeviation="2"/>
<feComposite in2="hardAlpha" operator="out"/>
<feColorMatrix type="matrix" values="0 0 0 0 0 0 0 0 0 0 0 0 0 0 0 0 0 0 0.25 0"/>
<feBlend mode="normal" in2="BackgroundImageFix" result="effect1_dropShadow"/>
<feBlend mode="normal" in="SourceGraphic" in2="effect1_dropShadow" result="shape"/>
</filter>
</defs>
</svg>
